ffmpeg started on 2025-06-19 at 12:12:28
Report written to "D:\Convert\FFMetrics\reports\ssim_report-6.txt"
Log level: 32
Command line:
ffmpeg -hide_banner -nostdin -i "G:\\\xc0\xed\xe8\xec\xe5\\[\xd2\xee\xef-4]\\Fate\\\xc0\xef\xee\xea\xf0\xe8\xf4\\Fate_Apocrypha_[25]_[AniLibria_TV]_[HDTVRip_720p]_HEVC.mkv" -i "G:\\\xc0\xed\xe8\xec\xe5\\[\xd2\xee\xef-4]\\Fate\\\xc0\xef\xee\xea\xf0\xe8\xf4\\Fate_Apocrypha_[25]_[AniLibria_TV]_[HDTVRip_720p].mkv" -lavfi "[0:v]settb=AVTB,setpts=PTS-STARTPTS,format=pix_fmts=yuv420p10,fps=24000/1001,scale=1280:720:flags=bicubic[main];[1:v]settb=AVTB,setpts=PTS-STARTPTS,format=pix_fmts=yuv420p,fps=24000/1001,scale=1280:720:flags=bicubic[ref];[main][ref]ssim=eof_action=endall:stats_file='D\\:/Convert/FFMetrics/logs/ssim_logfile-6.txt'" -f null -
Input #0, matroska,webm, from 'G:\Аниме\[Топ-4]\Fate\Апокриф\Fate_Apocrypha_[25]_[AniLibria_TV]_[HDTVRip_720p]_HEVC.mkv':
  Metadata:
    ENCODER         : Lavf61.7.100
  Duration: 00:24:00.11, start: -0.021000, bitrate: 812 kb/s
  Stream #0:0(jpn): Video: hevc (Main 10), yuv420p10le(tv, bt709, progressive), 1280x720 [SAR 1:1 DAR 16:9], 23.98 fps, 23.98 tbr, 1k tbn (default)
      Metadata:
        ENCODER         : Lavc61.19.100 libx265
        BPS             : 614029
        DURATION        : 00:23:59.980708333
        NUMBER_OF_FRAMES: 34525
        NUMBER_OF_BYTES : 110523863
        _STATISTICS_WRITING_APP: mkvpropedit v66.0.0 ('Josie') 64-bit
        _STATISTICS_WRITING_DATE_UTC: 2025-06-17 08:07:53
        _STATISTICS_TAGS: BPS DURATION NUMBER_OF_FRAMES NUMBER_OF_BYTES
  Stream #0:1(rus): Audio: aac (LC), 48000 Hz, stereo, fltp (default)
      Metadata:
        title           : Ados Amikiri Anzen Hekomi Silv
        ENCODER         : Lavc61.19.100 aac
        BPS             : 193791
        DURATION        : 00:24:00.085000000
        NUMBER_OF_FRAMES: 67505
        NUMBER_OF_BYTES : 34884496
        _STATISTICS_WRITING_APP: mkvpropedit v66.0.0 ('Josie') 64-bit
        _STATISTICS_WRITING_DATE_UTC: 2025-06-17 08:07:53
        _STATISTICS_TAGS: BPS DURATION NUMBER_OF_FRAMES NUMBER_OF_BYTES
  Stream #0:2(rus): Subtitle: ass (ssa)
      Metadata:
        title           : Полные
        BPS             : 124
        DURATION        : 00:22:48.040000000
        NUMBER_OF_FRAMES: 273
        NUMBER_OF_BYTES : 21368
        _STATISTICS_WRITING_APP: mkvpropedit v66.0.0 ('Josie') 64-bit
        _STATISTICS_WRITING_DATE_UTC: 2025-06-17 08:07:53
        _STATISTICS_TAGS: BPS DURATION NUMBER_OF_FRAMES NUMBER_OF_BYTES
Input #1, matroska,webm, from 'G:\Аниме\[Топ-4]\Fate\Апокриф\Fate_Apocrypha_[25]_[AniLibria_TV]_[HDTVRip_720p].mkv':
  Metadata:
    encoder         : libebml v1.3.0 + libmatroska v1.4.1
    creation_time   : 2018-01-07T19:53:18.000000Z
  Duration: 00:24:00.09, start: 0.000000, bitrate: 2094 kb/s
  Stream #1:0: Video: h264 (Main), yuv420p(tv, bt709, progressive), 1280x720, SAR 1:1 DAR 16:9, 23.98 fps, 23.98 tbr, 1k tbn (default)
      Metadata:
        BPS             : 1699499
        BPS-eng         : 1699499
        DURATION        : 00:23:59.981000000
        DURATION-eng    : 00:23:59.981000000
        NUMBER_OF_FRAMES: 34525
        NUMBER_OF_FRAMES-eng: 34525
        NUMBER_OF_BYTES : 305905787
        NUMBER_OF_BYTES-eng: 305905787
        _STATISTICS_WRITING_APP: mkvmerge v7.3.0 ('Nouages') 64bit built on Oct 22 2014 18:53:34
        _STATISTICS_WRITING_APP-eng: mkvmerge v7.3.0 ('Nouages') 64bit built on Oct 22 2014 18:53:34
        _STATISTICS_WRITING_DATE_UTC: 2018-01-07 19:53:18
        _STATISTICS_WRITING_DATE_UTC-eng: 2018-01-07 19:53:18
        _STATISTICS_TAGS: BPS DURATION NUMBER_OF_FRAMES NUMBER_OF_BYTES
        _STATISTICS_TAGS-eng: BPS DURATION NUMBER_OF_FRAMES NUMBER_OF_BYTES
  Stream #1:1(rus): Audio: aac (LC), 48000 Hz, stereo, fltp (default)
      Metadata:
        title           : Ados Amikiri Anzen Hekomi Silv
        BPS             : 192092
        BPS-eng         : 192092
        DURATION        : 00:24:00.085000000
        DURATION-eng    : 00:24:00.085000000
        NUMBER_OF_FRAMES: 67504
        NUMBER_OF_FRAMES-eng: 67504
        NUMBER_OF_BYTES : 34578710
        NUMBER_OF_BYTES-eng: 34578710
        _STATISTICS_WRITING_APP: mkvmerge v7.3.0 ('Nouages') 64bit built on Oct 22 2014 18:53:34
        _STATISTICS_WRITING_APP-eng: mkvmerge v7.3.0 ('Nouages') 64bit built on Oct 22 2014 18:53:34
        _STATISTICS_WRITING_DATE_UTC: 2018-01-07 19:53:18
        _STATISTICS_WRITING_DATE_UTC-eng: 2018-01-07 19:53:18
        _STATISTICS_TAGS: BPS DURATION NUMBER_OF_FRAMES NUMBER_OF_BYTES
        _STATISTICS_TAGS-eng: BPS DURATION NUMBER_OF_FRAMES NUMBER_OF_BYTES
  Stream #1:2(jpn): Audio: aac (LC), 48000 Hz, stereo, fltp
      Metadata:
        title           : Оригинал
        BPS             : 199441
        BPS-eng         : 199441
        DURATION        : 00:24:00.042000000
        DURATION-eng    : 00:24:00.042000000
        NUMBER_OF_FRAMES: 67502
        NUMBER_OF_FRAMES-eng: 67502
        NUMBER_OF_BYTES : 35900506
        NUMBER_OF_BYTES-eng: 35900506
        _STATISTICS_WRITING_APP: mkvmerge v7.3.0 ('Nouages') 64bit built on Oct 22 2014 18:53:34
        _STATISTICS_WRITING_APP-eng: mkvmerge v7.3.0 ('Nouages') 64bit built on Oct 22 2014 18:53:34
        _STATISTICS_WRITING_DATE_UTC: 2018-01-07 19:53:18
        _STATISTICS_WRITING_DATE_UTC-eng: 2018-01-07 19:53:18
        _STATISTICS_TAGS: BPS DURATION NUMBER_OF_FRAMES NUMBER_OF_BYTES
        _STATISTICS_TAGS-eng: BPS DURATION NUMBER_OF_FRAMES NUMBER_OF_BYTES
  Stream #1:3(rus): Subtitle: ass (ssa)
      Metadata:
        title           : Полные
        BPS             : 124
        BPS-eng         : 124
        DURATION        : 00:22:48.040000000
        DURATION-eng    : 00:22:48.040000000
        NUMBER_OF_FRAMES: 273
        NUMBER_OF_FRAMES-eng: 273
        NUMBER_OF_BYTES : 21368
        NUMBER_OF_BYTES-eng: 21368
        _STATISTICS_WRITING_APP: mkvmerge v7.3.0 ('Nouages') 64bit built on Oct 22 2014 18:53:34
        _STATISTICS_WRITING_APP-eng: mkvmerge v7.3.0 ('Nouages') 64bit built on Oct 22 2014 18:53:34
        _STATISTICS_WRITING_DATE_UTC: 2018-01-07 19:53:18
        _STATISTICS_WRITING_DATE_UTC-eng: 2018-01-07 19:53:18
        _STATISTICS_TAGS: BPS DURATION NUMBER_OF_FRAMES NUMBER_OF_BYTES
        _STATISTICS_TAGS-eng: BPS DURATION NUMBER_OF_FRAMES NUMBER_OF_BYTES
Stream mapping:
  Stream #0:0 (hevc) -> settb:default
  Stream #1:0 (h264) -> settb:default
  ssim:default -> Stream #0:0 (wrapped_avframe)
  Stream #0:1 -> #0:1 (aac (native) -> pcm_s16le (native))
Output #0, null, to 'pipe:':
  Metadata:
    encoder         : Lavf61.7.100
  Stream #0:0: Video: wrapped_avframe, yuv420p10le(tv, bt709, progressive), 1280x720 [SAR 1:1 DAR 16:9], q=2-31, 200 kb/s, 23.98 fps, 23.98 tbn
      Metadata:
        encoder         : Lavc61.19.100 wrapped_avframe
  Stream #0:1(rus): Audio: pcm_s16le, 48000 Hz, stereo, s16, 1536 kb/s (default)
      Metadata:
        title           : Ados Amikiri Anzen Hekomi Silv
        _STATISTICS_TAGS: BPS DURATION NUMBER_OF_FRAMES NUMBER_OF_BYTES
        BPS             : 193791
        DURATION        : 00:24:00.085000000
        NUMBER_OF_FRAMES: 67505
        NUMBER_OF_BYTES : 34884496
        _STATISTICS_WRITING_APP: mkvpropedit v66.0.0 ('Josie') 64-bit
        _STATISTICS_WRITING_DATE_UTC: 2025-06-17 08:07:53
        encoder         : Lavc61.19.100 pcm_s16le
frame=  453 fps=0.0 q=-0.0 size=N/A time=00:00:18.89 bitrate=N/A speed=36.7x    frame=  934 fps=912 q=-0.0 size=N/A time=00:00:38.95 bitrate=N/A speed=  38x    frame= 1511 fps=984 q=-0.0 size=N/A time=00:01:03.02 bitrate=N/A speed=  41x    frame= 2024 fps=982 q=-0.0 size=N/A time=00:01:24.41 bitrate=N/A speed=40.9x    frame= 2444 fps=950 q=-0.0 size=N/A time=00:01:41.93 bitrate=N/A speed=39.6x    frame= 2964 fps=962 q=-0.0 size=N/A time=00:02:03.62 bitrate=N/A speed=40.1x    frame= 3543 fps=982 q=-0.0 size=N/A time=00:02:27.77 bitrate=N/A speed=40.9x    frame= 4116 fps=999 q=-0.0 size=N/A time=00:02:51.67 bitrate=N/A speed=41.7x    frame= 4725 fps=1021 q=-0.0 size=N/A time=00:03:17.07 bitrate=N/A speed=42.6x    frame= 5298 fps=1028 q=-0.0 size=N/A time=00:03:40.97 bitrate=N/A speed=42.9x    frame= 5844 fps=1032 q=-0.0 size=N/A time=00:04:03.74 bitrate=N/A speed=  43x    frame= 6375 fps=1033 q=-0.0 size=N/A time=00:04:25.89 bitrate=N/A speed=43.1x    frame= 6802 fps=1015 q=-0.0 size=N/A time=00:04:43.70 bitrate=N/A speed=42.3x    frame= 7233 fps=1003 q=-0.0 size=N/A time=00:05:01.67 bitrate=N/A speed=41.8x    frame= 7635 fps=989 q=-0.0 size=N/A time=00:05:18.44 bitrate=N/A speed=41.2x    frame= 8040 fps=975 q=-0.0 size=N/A time=00:05:35.33 bitrate=N/A speed=40.7x    frame= 8534 fps=975 q=-0.0 size=N/A time=00:05:55.93 bitrate=N/A speed=40.6x    frame= 9032 fps=974 q=-0.0 size=N/A time=00:06:16.70 bitrate=N/A speed=40.6x    frame= 9544 fps=975 q=-0.0 size=N/A time=00:06:38.06 bitrate=N/A speed=40.7x    frame= 9983 fps=968 q=-0.0 size=N/A time=00:06:56.37 bitrate=N/A speed=40.4x    frame=10449 fps=966 q=-0.0 size=N/A time=00:07:15.81 bitrate=N/A speed=40.3x    frame=10949 fps=966 q=-0.0 size=N/A time=00:07:36.66 bitrate=N/A speed=40.3x    frame=11419 fps=963 q=-0.0 size=N/A time=00:07:56.26 bitrate=N/A speed=40.2x    frame=11871 fps=960 q=-0.0 size=N/A time=00:08:15.11 bitrate=N/A speed=  40x    frame=12313 fps=955 q=-0.0 size=N/A time=00:08:33.55 bitrate=N/A speed=39.8x    frame=12844 fps=958 q=-0.0 size=N/A time=00:08:55.70 bitrate=N/A speed=  40x    frame=13287 fps=955 q=-0.0 size=N/A time=00:09:14.17 bitrate=N/A speed=39.8x    frame=13799 fps=956 q=-0.0 size=N/A time=00:09:35.53 bitrate=N/A speed=39.9x    frame=14266 fps=955 q=-0.0 size=N/A time=00:09:55.01 bitrate=N/A speed=39.8x    frame=14695 fps=950 q=-0.0 size=N/A time=00:10:12.90 bitrate=N/A speed=39.6x    frame=15147 fps=948 q=-0.0 size=N/A time=00:10:31.75 bitrate=N/A speed=39.5x    frame=15587 fps=945 q=-0.0 size=N/A time=00:10:50.10 bitrate=N/A speed=39.4x    frame=15968 fps=939 q=-0.0 size=N/A time=00:11:05.99 bitrate=N/A speed=39.1x    frame=16369 fps=934 q=-0.0 size=N/A time=00:11:22.72 bitrate=N/A speed=  39x    frame=16837 fps=933 q=-0.0 size=N/A time=00:11:42.24 bitrate=N/A speed=38.9x    frame=17274 fps=931 q=-0.0 size=N/A time=00:12:00.46 bitrate=N/A speed=38.8x    frame=17643 fps=925 q=-0.0 size=N/A time=00:12:15.86 bitrate=N/A speed=38.6x    frame=17955 fps=916 q=-0.0 size=N/A time=00:12:28.87 bitrate=N/A speed=38.2x    frame=18347 fps=913 q=-0.0 size=N/A time=00:12:45.22 bitrate=N/A speed=38.1x    frame=18783 fps=911 q=-0.0 size=N/A time=00:13:03.40 bitrate=N/A speed=  38x    frame=19146 fps=906 q=-0.0 size=N/A time=00:13:18.54 bitrate=N/A speed=37.8x    frame=19530 fps=902 q=-0.0 size=N/A time=00:13:34.56 bitrate=N/A speed=37.6x    frame=19913 fps=899 q=-0.0 size=N/A time=00:13:50.53 bitrate=N/A speed=37.5x    frame=20280 fps=894 q=-0.0 size=N/A time=00:14:05.84 bitrate=N/A speed=37.3x    frame=20599 fps=888 q=-0.0 size=N/A time=00:14:19.14 bitrate=N/A speed=37.1x    frame=20992 fps=885 q=-0.0 size=N/A time=00:14:35.54 bitrate=N/A speed=36.9x    frame=21430 fps=885 q=-0.0 size=N/A time=00:14:53.80 bitrate=N/A speed=36.9x    frame=22064 fps=892 q=-0.0 size=N/A time=00:15:20.25 bitrate=N/A speed=37.2x    frame=22548 fps=893 q=-0.0 size=N/A time=00:15:40.43 bitrate=N/A speed=37.2x    frame=23077 fps=895 q=-0.0 size=N/A time=00:16:02.50 bitrate=N/A speed=37.3x    frame=23693 fps=901 q=-0.0 size=N/A time=00:16:28.19 bitrate=N/A speed=37.6x    frame=24314 fps=907 q=-0.0 size=N/A time=00:16:54.09 bitrate=N/A speed=37.8x    frame=24835 fps=909 q=-0.0 size=N/A time=00:17:15.82 bitrate=N/A speed=37.9x    frame=25447 fps=914 q=-0.0 size=N/A time=00:17:41.35 bitrate=N/A speed=38.1x    frame=26011 fps=917 q=-0.0 size=N/A time=00:18:04.87 bitrate=N/A speed=38.3x    frame=26525 fps=919 q=-0.0 size=N/A time=00:18:26.31 bitrate=N/A speed=38.3x    frame=27011 fps=919 q=-0.0 size=N/A time=00:18:46.58 bitrate=N/A speed=38.3x    frame=27537 fps=921 q=-0.0 size=N/A time=00:19:08.52 bitrate=N/A speed=38.4x    frame=27964 fps=920 q=-0.0 size=N/A time=00:19:26.33 bitrate=N/A speed=38.4x    frame=28293 fps=915 q=-0.0 size=N/A time=00:19:40.05 bitrate=N/A speed=38.1x    frame=28737 fps=914 q=-0.0 size=N/A time=00:19:58.57 bitrate=N/A speed=38.1x    frame=29198 fps=914 q=-0.0 size=N/A time=00:20:17.79 bitrate=N/A speed=38.1x    frame=29604 fps=911 q=-0.0 size=N/A time=00:20:34.73 bitrate=N/A speed=  38x    frame=30048 fps=911 q=-0.0 size=N/A time=00:20:53.25 bitrate=N/A speed=  38x    frame=30553 fps=912 q=-0.0 size=N/A time=00:21:14.31 bitrate=N/A speed=  38x    frame=31062 fps=913 q=-0.0 size=N/A time=00:21:35.54 bitrate=N/A speed=38.1x    frame=31627 fps=916 q=-0.0 size=N/A time=00:21:59.10 bitrate=N/A speed=38.2x    frame=32180 fps=918 q=-0.0 size=N/A time=00:22:22.17 bitrate=N/A speed=38.3x    frame=32615 fps=917 q=-0.0 size=N/A time=00:22:40.31 bitrate=N/A speed=38.2x    frame=33082 fps=917 q=-0.0 size=N/A time=00:22:59.79 bitrate=N/A speed=38.2x    frame=33536 fps=916 q=-0.0 size=N/A time=00:23:18.73 bitrate=N/A speed=38.2x    frame=34075 fps=918 q=-0.0 size=N/A time=00:23:41.21 bitrate=N/A speed=38.3x    [Parsed_ssim_10 @ 000002c3e507d700] SSIM Y:0.990552 (20.246823) U:0.989248 (19.685162) V:0.989679 (19.862835) All:0.990190 (20.083103)
[out#0/null @ 000002c3d8fe7780] video:14835KiB audio:270020KiB subtitle:0KiB other streams:0KiB global headers:0KiB muxing overhead: unknown
frame=34525 fps=921 q=-0.0 Lsize=N/A time=00:23:59.98 bitrate=N/A speed=38.4x    
